<svg width="47" height="48" viewBox="0 0 47 48" fill="none" xmlns="http://www.w3.org/2000/svg">
<rect width="47" height="48" rx="13" fill="#F15A2B"/>
<path d="M32.8184 31.9287C32.3682 31.9379 31.926 31.8091 31.5512 31.5596C31.2723 31.3773 30.9462 31.2803 30.613 31.2803C30.2797 31.2803 29.9537 31.3773 29.6747 31.5596C29.2961 31.8007 28.8566 31.9287 28.4077 31.9287C27.9589 31.9287 27.5194 31.8007 27.1408 31.5596C26.8618 31.3772 26.5357 31.28 26.2023 31.28C25.869 31.28 25.5429 31.3772 25.2639 31.5596C24.8853 31.8007 24.4458 31.9287 23.9969 31.9287C23.5481 31.9287 23.1086 31.8007 22.7299 31.5596C22.4512 31.3773 22.1253 31.2801 21.7922 31.2801C21.459 31.2801 21.1331 31.3773 20.8544 31.5596C20.5111 31.7878 20.1105 31.9145 19.6985 31.9255L19.6758 31.2768C19.9801 31.2696 20.2757 31.1733 20.5258 30.9998C20.9044 30.7589 21.3438 30.6308 21.7925 30.6308C22.2412 30.6308 22.6806 30.7589 23.0591 30.9998C23.3381 31.1822 23.6641 31.2793 23.9974 31.2793C24.3307 31.2793 24.6567 31.1822 24.9357 30.9998C25.3143 30.7586 25.754 30.6305 26.203 30.6305C26.6519 30.6305 27.0916 30.7586 27.4703 30.9998C27.7492 31.1822 28.0753 31.2793 28.4085 31.2793C28.7418 31.2793 29.0679 31.1822 29.3468 30.9998C29.7255 30.7589 30.165 30.6309 30.6138 30.6309C31.0626 30.6309 31.5021 30.7589 31.8808 30.9998C32.1604 31.1826 32.4872 31.28 32.8213 31.28C33.1554 31.28 33.4822 31.1826 33.7618 30.9998C34.1362 30.7511 34.5776 30.6225 35.027 30.6314V31.2801C34.6924 31.2709 34.3636 31.3687 34.0884 31.5593C33.7127 31.8092 33.2695 31.9381 32.8184 31.9287Z" fill="white"/>
<path d="M15.1784 31.9287C14.7284 31.938 14.2863 31.8092 13.9116 31.5596C13.6365 31.3689 13.3077 31.2709 12.973 31.2801V30.6314C13.4232 30.6221 13.8654 30.7509 14.2402 31.0005C14.5151 31.1913 14.8439 31.2892 15.1784 31.2801C15.5131 31.2893 15.842 31.1912 16.117 31.0002C16.491 30.7507 16.9325 30.622 17.3819 30.6314C17.8204 30.6216 18.2517 30.7444 18.6192 30.9839L18.2919 31.5437C18.0235 31.3631 17.7053 31.2709 17.3819 31.2801C17.0486 31.2711 16.7211 31.3688 16.4472 31.559C16.0721 31.8093 15.6292 31.9383 15.1784 31.9287Z" fill="white"/>
<path d="M32.8194 29.6581C32.3689 29.6673 31.9265 29.5386 31.5513 29.2891C31.2721 29.1066 30.9458 29.0094 30.6122 29.0094C30.2787 29.0094 29.9523 29.1066 29.6731 29.2891C29.2946 29.53 28.8551 29.658 28.4063 29.658C27.9576 29.658 27.5181 29.53 27.1395 29.2891C26.8607 29.1067 26.5347 29.0096 26.2016 29.0096C25.8684 29.0096 25.5425 29.1067 25.2636 29.2891C24.8851 29.5301 24.4456 29.6582 23.9968 29.6582C23.548 29.6582 23.1085 29.5301 22.73 29.2891C22.4512 29.1067 22.1252 29.0096 21.7921 29.0096C21.4589 29.0096 21.1329 29.1067 20.8541 29.2891C20.4795 29.5387 20.0374 29.6675 19.5873 29.6581C19.1372 29.6675 18.6951 29.5387 18.3205 29.2891C18.0456 29.0983 17.717 29.0004 17.3825 29.0095C17.0482 29.0004 16.7197 29.0984 16.4449 29.2891C16.0709 29.5384 15.6295 29.6672 15.18 29.6581C14.7299 29.6675 14.2877 29.5387 13.9129 29.2891C13.6375 29.0979 13.3081 29 12.973 29.0095V28.3608C13.4231 28.3515 13.8652 28.4804 14.2398 28.7299C14.515 28.9207 14.8438 29.0186 15.1784 29.0095C15.5128 29.0186 15.8413 28.9206 16.1161 28.7299C16.4901 28.4806 16.9315 28.3518 17.3809 28.3608C17.8313 28.3513 18.2738 28.4801 18.6487 28.7299C18.9237 28.9207 19.2524 29.0187 19.587 29.0095C19.9215 29.0187 20.2503 28.9207 20.5252 28.7299C20.9038 28.4888 21.3433 28.3608 21.7921 28.3608C22.2408 28.3608 22.6803 28.4888 23.0589 28.7299C23.3377 28.9123 23.6637 29.0094 23.997 29.0094C24.3302 29.0094 24.6562 28.9123 24.9351 28.7299C25.3136 28.4888 25.7531 28.3608 26.2019 28.3608C26.6507 28.3608 27.0902 28.4888 27.4687 28.7299C27.7476 28.9123 28.0736 29.0094 28.4068 29.0094C28.74 29.0094 29.066 28.9123 29.3449 28.7299C29.7238 28.4889 30.1636 28.3609 30.6127 28.3609C31.0618 28.3609 31.5016 28.4889 31.8805 28.7299C32.1599 28.9123 32.4863 29.0093 32.8199 29.0093C33.1535 29.0093 33.4799 28.9123 33.7593 28.7299C34.1344 28.4805 34.5767 28.3517 35.0271 28.3608V29.0095C34.6918 29 34.3622 29.098 34.0865 29.2891C33.7116 29.5384 33.2695 29.6671 32.8194 29.6581Z" fill="white"/>
<path d="M32.8184 27.3881C32.3683 27.3973 31.9261 27.2685 31.5513 27.0191C31.2762 26.8283 30.9473 26.7304 30.6127 26.7395C30.3671 26.731 30.1232 26.7834 29.9028 26.8919L29.6167 26.3081C29.9263 26.1564 30.268 26.0815 30.6127 26.0899C31.0634 26.0807 31.5061 26.2098 31.8811 26.4599C32.1608 26.6427 32.4876 26.7401 32.8217 26.7401C33.1558 26.7401 33.4826 26.6427 33.7622 26.4599C34.1364 26.211 34.5777 26.0822 35.0271 26.0908V26.7395C34.6925 26.7303 34.3637 26.8281 34.0885 27.0187C33.7128 27.2686 33.2696 27.3975 32.8184 27.3881Z" fill="white"/>
<path d="M28.4044 27.3881C27.9549 27.3975 27.5135 27.2688 27.1395 27.0194C26.8605 26.8369 26.5344 26.7397 26.2011 26.7397C25.8677 26.7397 25.5416 26.8369 25.2626 27.0194C24.884 27.2604 24.4445 27.3884 23.9957 27.3884C23.5468 27.3884 23.1073 27.2604 22.7287 27.0194C22.4497 26.837 22.1237 26.7399 21.7904 26.7399C21.4572 26.7399 21.1311 26.837 20.8522 27.0194C20.4776 27.2685 20.0358 27.3972 19.586 27.3881C19.1359 27.3974 18.6938 27.2686 18.3192 27.019C18.0441 26.8283 17.7152 26.7304 17.3806 26.7395C17.0473 26.7305 16.7198 26.8282 16.4459 27.0184C16.0712 27.2684 15.6288 27.3975 15.1784 27.3881C14.7284 27.3974 14.2863 27.2686 13.9116 27.019C13.6365 26.8283 13.3077 26.7304 12.973 26.7395V26.0908C13.4232 26.0815 13.8654 26.2103 14.2402 26.4599C14.5151 26.6507 14.8439 26.7486 15.1784 26.7395C15.5131 26.7487 15.842 26.6506 16.117 26.4596C16.491 26.2101 16.9325 26.0814 17.3819 26.0908C17.8319 26.0815 18.2741 26.2103 18.6487 26.4599C18.9237 26.6507 19.2524 26.7486 19.587 26.7395C19.9216 26.7486 20.2504 26.6506 20.5256 26.4599C20.9042 26.2189 21.3437 26.0908 21.7925 26.0908C22.2414 26.0908 22.6809 26.2189 23.0595 26.4599C23.3385 26.6423 23.6645 26.7394 23.9978 26.7394C24.3311 26.7394 24.6571 26.6423 24.9361 26.4599C25.3147 26.2187 25.7544 26.0905 26.2033 26.0905C26.6523 26.0905 27.092 26.2187 27.4706 26.4599C27.7564 26.6521 28.0952 26.7498 28.4394 26.7391C28.4644 26.7395 28.4895 26.7382 28.5143 26.7352L28.6006 27.3781C28.5355 27.3857 28.4699 27.389 28.4044 27.3881Z" fill="white"/>
<path d="M32.8194 25.1175C32.3689 25.1267 31.9265 24.9979 31.5513 24.7484C31.2721 24.566 30.9458 24.4688 30.6122 24.4688C30.2787 24.4688 29.9523 24.566 29.6731 24.7484C29.2946 24.9894 28.8551 25.1174 28.4063 25.1174C27.9576 25.1174 27.5181 24.9894 27.1395 24.7484C26.8607 24.5661 26.5347 24.469 26.2016 24.469C25.8684 24.469 25.5425 24.5661 25.2636 24.7484C24.8851 24.9895 24.4456 25.1175 23.9968 25.1175C23.548 25.1175 23.1085 24.9895 22.73 24.7484C22.4512 24.5661 22.1252 24.469 21.7921 24.469C21.4589 24.469 21.1329 24.5661 20.8541 24.7484C20.4795 24.998 20.0374 25.1268 19.5873 25.1175C19.1372 25.1268 18.6951 24.998 18.3205 24.7484C18.0456 24.5577 17.717 24.4597 17.3825 24.4688C17.0482 24.4598 16.7197 24.5577 16.4449 24.7484C16.0709 24.9977 15.6295 25.1265 15.18 25.1175C14.7299 25.1268 14.2877 24.998 13.9129 24.7484C13.6375 24.5573 13.3081 24.4593 12.973 24.4688V23.8202C13.4231 23.8109 13.8652 23.9397 14.2398 24.1893C14.515 24.38 14.8438 24.478 15.1784 24.4688C15.5128 24.4779 15.8413 24.38 16.1161 24.1893C16.4901 23.94 16.9315 23.8111 17.3809 23.8202C17.8313 23.8106 18.2738 23.9395 18.6487 24.1893C18.9237 24.3801 19.2524 24.478 19.587 24.4688C19.9215 24.478 20.2503 24.3801 20.5252 24.1893C20.9038 23.9482 21.3433 23.8201 21.7921 23.8201C22.2408 23.8201 22.6803 23.9482 23.0589 24.1893C23.3377 24.3717 23.6637 24.4688 23.997 24.4688C24.3302 24.4688 24.6562 24.3717 24.9351 24.1893C25.3136 23.9482 25.7531 23.8201 26.2019 23.8201C26.6507 23.8201 27.0902 23.9482 27.4687 24.1893C27.7476 24.3717 28.0736 24.4688 28.4068 24.4688C28.74 24.4688 29.066 24.3717 29.3449 24.1893C29.7238 23.9483 30.1636 23.8203 30.6127 23.8203C31.0618 23.8203 31.5016 23.9483 31.8805 24.1893C32.1599 24.3716 32.4863 24.4687 32.8199 24.4687C33.1535 24.4687 33.4799 24.3716 33.7593 24.1893C34.1344 23.9399 34.5767 23.8111 35.0271 23.8202V24.4688C34.6918 24.4594 34.3622 24.5573 34.0865 24.7484C33.7116 24.9977 33.2695 25.1265 32.8194 25.1175Z" fill="white"/>
<path d="M28.1978 24.8425L27.5858 24.6278C27.7434 24.1749 27.8078 23.6948 27.7751 23.2165C27.7424 22.7381 27.6133 22.2713 27.3954 21.8441L25.1677 17.4816C25.1457 17.4385 25.1336 17.3911 25.1323 17.3427C25.131 17.2943 25.1406 17.2463 25.1602 17.2021C25.1799 17.1579 25.2092 17.1187 25.2461 17.0873C25.2829 17.0559 25.3262 17.0332 25.373 17.0207L29.8126 15.8369C29.9573 15.7991 30.0812 15.7057 30.1573 15.577C30.2335 15.4483 30.2557 15.2947 30.2192 15.1497C30.1827 15.0046 30.0904 14.8799 29.9624 14.8026C29.8344 14.7253 29.681 14.7017 29.5357 14.7368L24.1623 16.0212C24.0474 16.0483 23.9403 16.1015 23.8493 16.1767C23.7583 16.2519 23.6858 16.347 23.6375 16.4547C23.5892 16.5624 23.5663 16.6797 23.5706 16.7977C23.575 16.9157 23.6064 17.031 23.6625 17.1349L25.2581 20.0992C25.2986 20.1746 25.3077 20.2628 25.2834 20.3448C25.2591 20.4268 25.2034 20.4959 25.1284 20.5371L23.069 21.6722L22.756 21.104L24.5339 20.1239L23.092 17.4424C22.9888 17.2509 22.9311 17.0383 22.9232 16.821C22.9153 16.6037 22.9576 16.3875 23.0466 16.1891C23.1356 15.9907 23.2691 15.8155 23.4367 15.6769C23.6043 15.5384 23.8015 15.4402 24.0131 15.39L29.3839 14.106C29.6965 14.027 30.0278 14.0755 30.3047 14.2407C30.5817 14.4059 30.7817 14.6744 30.8607 14.9871C30.9397 15.2997 30.8913 15.631 30.726 15.9079C30.5608 16.1849 30.2923 16.3849 29.9797 16.4639L25.9275 17.5439L27.9734 21.5486C28.231 22.0541 28.3837 22.6065 28.4223 23.1726C28.4608 23.7387 28.3845 24.3067 28.1978 24.8425Z" fill="white"/>
<path d="M21.6223 21.7339L17.681 23.9056L17.9939 24.4735L21.9352 22.3017L21.6223 21.7339Z" fill="white"/>
<path d="M31.1352 22.6851C30.6541 22.6851 30.1838 22.5424 29.7838 22.2751C29.3838 22.0078 29.072 21.6279 28.8879 21.1835C28.7038 20.739 28.6556 20.2499 28.7495 19.7781C28.8434 19.3062 29.075 18.8728 29.4152 18.5326C29.7554 18.1925 30.1888 17.9608 30.6606 17.8669C31.1325 17.7731 31.6216 17.8212 32.066 18.0053C32.5105 18.1895 32.8904 18.5012 33.1577 18.9012C33.425 19.3012 33.5676 19.7715 33.5676 20.2526C33.5669 20.8975 33.3104 21.5158 32.8544 21.9719C32.3984 22.4279 31.7801 22.6844 31.1352 22.6851ZM31.1352 18.4688C30.7824 18.4688 30.4375 18.5735 30.1442 18.7695C29.8508 18.9655 29.6222 19.2441 29.4872 19.57C29.3522 19.8959 29.3169 20.2546 29.3857 20.6006C29.4545 20.9466 29.6244 21.2645 29.8739 21.5139C30.1233 21.7634 30.4412 21.9333 30.7872 22.0021C31.1332 22.071 31.4919 22.0356 31.8178 21.9006C32.1438 21.7656 32.4223 21.537 32.6183 21.2436C32.8144 20.9503 32.919 20.6054 32.919 20.2526C32.9184 19.7797 32.7302 19.3264 32.3959 18.992C32.0615 18.6576 31.6081 18.4694 31.1352 18.4688Z" fill="white"/>
</svg>
